<svg width="467" height="127" viewBox="0 0 467 127" fill="none" xmlns="http://www.w3.org/2000/svg">
<path d="M51.2 119.2C50.8 119.2 50.1333 119.133 49.2 119C48.4 119 47.9333 118.933 47.8 118.8C47.6667 118.533 47.8 118.267 48.2 118C48.7333 117.867 48.7333 117.733 48.2 117.6C47.6667 117.467 47.2667 117.2 47 116.8C46.7333 116.533 46.2667 116.4 45.6 116.4C44.9333 116.4 44 116.667 42.8 117.2C41.6 117.733 40.8 117.933 40.4 117.8C37.6 117.133 34.8667 116.2 32.2 115C29.6667 113.933 27.2667 112.533 25 110.8C24.7333 110.533 24.5333 110.067 24.4 109.4C24.2667 108.733 23.8 108.333 23 108.2C22.0667 108.067 21.3333 107.6 20.8 106.8C20.2667 105.867 19.6 105.067 18.8 104.4C17.8667 103.6 17.2 102.667 16.8 101.6C16.5333 100.4 16.2667 99.2667 16 98.2C15.4667 96.7333 15.1333 95.4 15 94.2C15 93 15 91.6 15 90C15 88.9333 15.2 87 15.6 84.2C16.1333 81.4 16.4 79.4667 16.4 78.4V78.2C17.3333 76.0667 17.8667 74.6 18 73.8C18.2667 73 18.4667 72.4 18.6 72C18.7333 71.4667 19.1333 70.7333 19.8 69.8C20.4667 68.8667 21.6667 67.2 23.4 64.8C24.2 63.7333 24.6667 63.1333 24.8 63C25.0667 62.8667 25.4667 62.5333 26 62C26.8 60.9333 27.7333 59.6667 28.8 58.2C29.8667 56.7333 30.8667 55.6 31.8 54.8C33.2667 53.6 35 52.3333 37 51C39 49.5333 40.8 48.3333 42.4 47.4C42.9333 47 43.4 46.8 43.8 46.8C44.2 46.6667 44.6667 46.5333 45.2 46.4C45.6 46.2667 46.4667 45.8 47.8 45C49.1333 44.0667 50.4667 43.2 51.8 42.4C53.2667 41.6 54.1333 41.2667 54.4 41.4C54.5333 41.4 54.6 41.4667 54.6 41.6C54.7333 41.6 54.8667 41.6 55 41.6C55.2667 41.6 55.6 41.4667 56 41.2C56.4 40.8 56.7333 40.5333 57 40.4C58.4667 39.4667 60 39 61.6 39C62.8 38.8667 63.8 38.6667 64.6 38.4C65.4 38.1333 66.2667 37.8667 67.2 37.6C68 37.3333 69.3333 37 71.2 36.6C73.0667 36.2 74.8 36 76.4 36C77.3333 36 78.0667 36.1333 78.6 36.4C79.4 36.8 79.9333 37 80.2 37C80.4667 37 80.7333 37 81 37C81.2667 36.8667 81.6 36.7333 82 36.6C82.4 36.4667 82.8667 36.4 83.4 36.4C83.6667 36.4 83.8667 36.5333 84 36.8C84.2667 36.9333 84.6667 37.2667 85.2 37.8C85.3333 37.9333 85.6 38 86 38C86.2667 38 86.5333 37.9333 86.8 37.8C87.2 37.6667 87.5333 37.6 87.8 37.6C88.4667 37.6 88.9333 37.8667 89.2 38.4C89.6 38.8 90.0667 39.0667 90.6 39.2C91.2667 39.3333 91.8667 39.4667 92.4 39.6C92.9333 39.6 93.4667 39.7333 94 40C95.2 40.5333 96.4667 41.4667 97.8 42.8C99.2667 44 100.133 45.3333 100.4 46.8C100.4 47.0667 100.4 47.4667 100.4 48C100.4 48.4 100.133 48.4 99.6 48C97.7333 46.2667 95.9333 44.8 94.2 43.6C92.6 42.2667 90.4 41.6 87.6 41.6C85.0667 41.6 81.9333 41.8667 78.2 42.4C74.4667 42.9333 70.8667 43.7333 67.4 44.8C63.9333 45.7333 61.2 46.8667 59.2 48.2C58.5333 48.7333 58.0667 49.1333 57.8 49.4C57.5333 49.5333 56.8667 49.6 55.8 49.6C54.4667 49.6 53.1333 50.1333 51.8 51.2C50.6 52.1333 49.4 52.9333 48.2 53.6C47.6667 53.8667 47 54.0667 46.2 54.2C45.4 54.3333 44.8 54.6 44.4 55C44.1333 55.2667 44 55.4667 44 55.6C44 55.7333 43.8667 55.9333 43.6 56.2L43.4 56.4C41.8 58 40.2 59.2 38.6 60C37.1333 60.8 35.4667 61.9333 33.6 63.4C33.4667 63.4 33.0667 63.9333 32.4 65C31.7333 65.9333 31.0667 66.8667 30.4 67.8C29.7333 68.7333 29.2667 69.2667 29 69.4C27.9333 69.6667 27 70.4 26.2 71.6C25.4 72.6667 24.8 73.6 24.4 74.4C24 74.9333 23.4667 75.6 22.8 76.4C22.2667 77.0667 21.8 77.7333 21.4 78.4C20.4667 80.1333 19.8 82 19.4 84C19 86 18.8 88.0667 18.8 90.2C18.8 91.1333 18.8 92.1333 18.8 93.2C18.9333 94.2667 19.0667 95.3333 19.2 96.4C19.3333 97.3333 19.4 98 19.4 98.4C19.4 98.6667 19.7333 99.1333 20.4 99.8C21.0667 100.6 21.6 101.467 22 102.4C22.5333 103.2 23.1333 103.933 23.8 104.6C23.9333 104.733 24 104.933 24 105.2C24 106.267 24.1333 106.867 24.4 107C24.8 107.133 25.2 107.2 25.6 107.2C26 107.2 26.3333 107.667 26.6 108.6L27 109C28.6 109.267 30.0667 109.8 31.4 110.6C32.7333 111.267 34.1333 111.8 35.6 112.2C36.5333 112.333 37.4667 112.533 38.4 112.8C39.4667 112.933 40.4 113.133 41.2 113.4C41.6 113.533 41.9333 113.733 42.2 114C42.6 114.4 42.8667 114.667 43 114.8H43.2C43.4667 114.8 43.6667 114.667 43.8 114.4C44.0667 114.133 44.4 114 44.8 114C45.2 114 45.7333 113.933 46.4 113.8C47.0667 113.8 47.5333 113.933 47.8 114.2C48.4667 114.6 49.0667 114.8 49.6 114.8C50.1333 114.8 50.6667 114.667 51.2 114.4C51.4667 114.267 52.1333 114.2 53.2 114.2C54.4 114.2 55.0667 114.2 55.2 114.2C55.4667 114.333 55.8 114.533 56.2 114.8C56.7333 115.067 57.2 115.133 57.6 115C57.8667 114.733 57.9333 114.533 57.8 114.4C57.8 114.267 58.0667 114.133 58.6 114L62.4 113.6C62.6667 113.467 62.9333 113.4 63.2 113.4C64.4 113.267 65.8 113 67.4 112.6C69.1333 112.067 70.4667 111.733 71.4 111.6C73 111.6 74.6667 111.067 76.4 110C78.4 108.933 80.4667 108 82.6 107.2C84.7333 106.267 86.8667 105.4 89 104.6C90.4667 104.067 91.7333 103.4 92.8 102.6C93.8667 101.8 94.9333 101 96 100.2C97.0667 99.5333 98.0667 98.8667 99 98.2C100.067 97.5333 101 96.8667 101.8 96.2C102.2 95.8 102.533 95.3333 102.8 94.8C103.067 94.2667 103.467 93.8667 104 93.6C107.467 91.6 110.267 89.3333 112.4 86.8C114.533 84.2667 117.067 81.7333 120 79.2C120.667 78.5333 121.133 78 121.4 77.6C121.667 77.2 122 76.6667 122.4 76C123.333 74.5333 124.533 73.0667 126 71.6C127.467 70 128.667 68.1333 129.6 66C130 65.0667 130.6 64.4667 131.4 64.2C132.2 63.8 132.667 63.2667 132.8 62.6C132.8 62.6 132.6 62.0667 132.2 61C131.933 59.8 132.133 59 132.8 58.6C133.467 58.2 133.8 57.7333 133.8 57.2C133.8 56.4 133.4 55.6667 132.6 55C131.933 54.2 131.6 53.5333 131.6 53C131.733 49.5333 131.467 46.8 130.8 44.8C130.267 42.6667 129.267 40.7333 127.8 39C126.333 37.2667 124.467 35.3333 122.2 33.2C119.667 30.8 116.2 29.0667 111.8 28C107.533 26.8 103.667 26 100.2 25.6C99.4 25.6 98.5333 25.4 97.6 25C96.8 24.6 96 24.5333 95.2 24.8C94.9333 24.9333 94.2667 25 93.2 25C92.2667 25 91.2 25 90 25C88.8 24.8667 88.0667 24.7333 87.8 24.6C86.4667 24.3333 85.2667 24.4 84.2 24.8C83.1333 25.0667 82 25.2 80.8 25.2C80 25.2 79.4 25.1333 79 25C78.6 24.8667 78.2 24.8 77.8 24.8C77.2667 24.8 76.8 24.9333 76.4 25.2C76.1333 25.3333 75.6667 25.5333 75 25.8C71.2667 27.1333 67.2667 28.1333 63 28.8C62.8667 28.8 61.8667 29.0667 60 29.6C58.1333 30.1333 56.2667 30.7333 54.4 31.4C52.5333 31.9333 51.4 32.2667 51 32.4C49.6667 32.9333 48.4 33.4 47.2 33.8C46 34.2 44.8667 34.8 43.8 35.6C43.5333 35.7333 43.2 35.9333 42.8 36.2C42.4 36.4667 42 36.6 41.6 36.6C40.6667 36.7333 39.8667 37.0667 39.2 37.6C38.6667 38 38.0667 38.4 37.4 38.8C36.8667 39.2 36.1333 39.4667 35.2 39.6C34.4 39.7333 33.7333 40 33.2 40.4C32.9333 40.5333 32.8 40.9333 32.8 41.6C32.9333 42.2667 32.8 42.6667 32.4 42.8C31.8667 43.0667 31.2 43.2667 30.4 43.4C29.7333 43.4 29.0667 43.4667 28.4 43.6C27.4667 43.7333 26.5333 44.4 25.6 45.6C24.6667 46.6667 23.8667 47.5333 23.2 48.2C22.4 48.7333 21.3333 49.7333 20 51.2C18.6667 52.5333 17.6 53.4667 16.8 54C16.1333 54.4 15.4667 54.6667 14.8 54.8C14.1333 54.9333 13.7333 55.6 13.6 56.8L11 59.2C10.0667 59.3333 9.46667 59.7333 9.2 60.4C8.93333 60.9333 8.46667 61.4667 7.8 62C6.73333 62.8 6.06667 63.4 5.8 63.8C5.66667 64.0667 5.06667 64.6667 4 65.6C3.06667 66.5333 2.2 67 1.4 67C1 67 0.8 66.8 0.8 66.4C0.8 65.4667 1.4 64.1333 2.6 62.4C3.8 61.7333 4.66667 60.8 5.2 59.6C5.73333 58.4 6.53333 57.4 7.6 56.6C8.66667 55.9333 9.46667 55.2 10 54.4C10.6667 53.6 11.3333 52.7333 12 51.8C12.2667 51.5333 12.4667 51.4 12.6 51.4C13.6667 50.6 14.5333 49.7333 15.2 48.8C16 47.7333 17 46.9333 18.2 46.4C19.4 45.8667 20.4 45.2 21.2 44.4C22 43.4667 22.8667 42.6667 23.8 42C30.3333 37.4667 37.4667 33.4 45.2 29.8C52.9333 26.0667 60.6667 23.7333 68.4 22.8C69.4667 22.6667 70.4 22.5333 71.2 22.4C72.1333 22.1333 73.0667 21.9333 74 21.8C74.4 21.6667 75.2667 21.5333 76.6 21.4C78.0667 21.1333 79.4667 20.9333 80.8 20.8C82.2667 20.5333 83.1333 20.4667 83.4 20.6C83.8 20.6 84.2 20.6667 84.6 20.8C85 20.8 85.3333 20.8 85.6 20.8C86.5333 20.8 87.2667 20.7333 87.8 20.6C88.4667 20.4667 89.2667 20.4 90.2 20.4C95.9333 20.5333 101.333 21.2667 106.4 22.6C111.467 23.9333 116.4 26.1333 121.2 29.2C121.867 29.7333 122.4 30.2667 122.8 30.8C123.2 31.2 123.8 31.5333 124.6 31.8C125.267 32.2 125.933 32.8 126.6 33.6C127.533 34.9333 128.6 36.2667 129.8 37.6C131 38.8 132 40.1333 132.8 41.6C134.267 44.2667 135.333 47.0667 136 50C136.8 52.9333 137.2 55.8667 137.2 58.8C137.2 69.0667 133.8 77.8 127 85C126.467 85.5333 125.6 85.8667 124.4 86C123.333 86 122.667 86.1333 122.4 86.4C122.267 86.5333 122.467 86.9333 123 87.6C123.533 88.2667 123.667 88.7333 123.4 89C121.533 90.8667 119.6 92.6 117.6 94.2C117.467 94.3333 117.333 94.1333 117.2 93.6C117.067 92.9333 116.8 92.5333 116.4 92.4C116 92.1333 115.733 92.5333 115.6 93.6C115.6 94.6667 115.467 95.3333 115.2 95.6L113.4 93.6C113.133 93.7333 113.133 94.4 113.4 95.6C113.667 96.8 113.667 97.5333 113.4 97.8C110.467 99.9333 107.467 101.933 104.4 103.8C101.333 105.667 98.0667 107.4 94.6 109C87.6667 112.333 80.4 114.867 72.8 116.6C65.3333 118.467 58.1333 119.333 51.2 119.2ZM152.006 112.6C150.673 112.6 149.273 112.333 147.806 111.8C146.34 111.133 145.806 110.4 146.206 109.6C146.74 108.533 147.34 107.467 148.006 106.4C148.806 105.2 149.54 103.933 150.206 102.6L152.406 98.4C152.673 97.7333 152.94 97.2667 153.206 97C153.606 96.6 153.94 96.1333 154.206 95.6C154.34 95.4667 154.406 95.1333 154.406 94.6C154.406 93.9333 154.673 93.2 155.206 92.4C155.873 91.4667 156.34 90.6 156.606 89.8C156.74 89.6667 156.873 90.0667 157.006 91C157.14 91.9333 157.473 91.8667 158.006 90.8C158.14 90.6667 158.073 90.4667 157.806 90.2C157.673 89.9333 157.606 89.6667 157.606 89.4C157.606 89.1333 157.673 89 157.806 89C158.073 88.8667 158.206 88.7333 158.206 88.6C158.34 88.2 158.206 88.0667 157.806 88.2C157.54 88.2 157.406 88.1333 157.406 88C157.673 87.6 157.94 87.3333 158.206 87.2C158.606 87.0667 158.873 86.8667 159.006 86.6C159.006 86.3333 158.873 86.2 158.606 86.2C158.473 86.0667 158.473 85.9333 158.606 85.8C159.273 83.9333 160.006 81.7333 160.806 79.2C161.606 76.6667 162.206 74.3333 162.606 72.2C162.606 72.2 162.473 72.1333 162.206 72C161.94 71.7333 161.806 71.4667 161.806 71.2L160.406 70.2C158.806 71.6667 157.073 72.9333 155.206 74C155.073 74.1333 154.806 74.2 154.406 74.2C153.873 74.2 153.54 73.9333 153.406 73.4C153.273 72.8667 153.473 72.4 154.006 72C154.673 71.6 155.206 71.3333 155.606 71.2C156.006 70.9333 156.473 70.5333 157.006 70C157.273 69.7333 157.406 69.4667 157.406 69.2C157.54 68.9333 157.673 68.6667 157.806 68.4L158.606 67.4C158.606 66.7333 158.74 66.2 159.006 65.8C159.273 65.5333 159.473 65.4 159.606 65.4C159.74 65.4 159.806 65.4 159.806 65.4V65C159.806 64.4667 160.006 64.1333 160.406 64C160.94 63.8667 161.206 63.6667 161.206 63.4C161.473 61.5333 163.073 60.1333 166.006 59.2C168.94 58.2667 171.54 57.8 173.806 57.8C176.073 57.8 177.206 58.1333 177.206 58.8C177.206 59.2 176.806 59.6667 176.006 60.2C175.606 60.4667 174.94 61.0667 174.006 62C173.073 62.9333 172.206 64.0667 171.406 65.4L170.006 67.8L168.606 69.6C167.673 71.7333 166.34 75 164.606 79.4C162.873 83.8 161.073 89.3333 159.206 96C159.606 95.4667 160.54 94.3333 162.006 92.6C163.473 90.8667 165.206 88.8667 167.206 86.6C169.206 84.3333 171.14 82.2 173.006 80.2C174.873 78.0667 176.406 76.4 177.606 75.2L178.606 74.6C178.873 74.3333 179.14 74 179.406 73.6C179.806 73.0667 180.14 72.6667 180.406 72.4C180.54 72.2667 180.606 72.5333 180.606 73.2C180.74 73.7333 180.873 73.9333 181.006 73.8C181.54 73.4 181.806 72.8 181.806 72C181.94 71.2 182.273 70.6667 182.806 70.4C184.273 69.2 186.273 67.5333 188.806 65.4C191.473 63.1333 194.206 61.8 197.006 61.4C197.273 61.1333 197.673 61.0667 198.206 61.2C198.873 61.2 199.34 61.1333 199.606 61C199.873 61 200.073 60.9333 200.206 60.8C200.34 60.6667 200.673 60.6 201.206 60.6C201.473 60.6 202.006 60.8 202.806 61.2C203.74 61.6 204.273 62.1333 204.406 62.8C205.206 63.3333 205.606 64.1333 205.606 65.2C205.606 67.0667 204.606 68.4667 202.606 69.4C201.94 70.0667 201.206 70.7333 200.406 71.4C199.606 71.9333 198.806 72.5333 198.006 73.2C197.74 73.4667 197.54 73.6 197.406 73.6C196.473 74.4 195.673 75.2667 195.006 76.2C194.34 77.1333 194.006 78.3333 194.006 79.8C194.006 79.9333 194.14 80.1333 194.406 80.4C194.673 80.5333 194.74 80.6667 194.606 80.8C195.006 81.2 195.606 81.4667 196.406 81.6C197.206 81.6 198.006 81.6 198.806 81.6C200.14 81.6 202.14 81.0667 204.806 80H205.206C205.34 80 205.406 80.0667 205.406 80.2C205.406 80.4667 205.14 80.9333 204.606 81.6C204.073 82.1333 203.473 82.5333 202.806 82.8C201.34 83.3333 199.806 83.6667 198.206 83.8C196.606 83.8 195.473 83.8 194.806 83.8C192.406 83.8 190.873 83.3333 190.206 82.4C189.673 81.4667 189.14 80.3333 188.606 79V78L189.606 77C189.473 76.6 189.273 76.2 189.006 75.8C188.74 75.4 188.606 74.9333 188.606 74.4C188.606 73.0667 189.14 71.5333 190.206 69.8C188.74 70.2 186.873 71.3333 184.606 73.2C182.473 74.9333 180.273 77 178.006 79.4C175.74 81.6667 173.673 83.9333 171.806 86.2C169.94 88.3333 168.473 90.0667 167.406 91.4C167.006 91.9333 166.54 92.2667 166.006 92.4C165.606 92.4 165.273 92.6 165.006 93C164.873 93.1333 165.006 93.2 165.406 93.2C165.94 93.2 166.14 93.2667 166.006 93.4C164.273 96.0667 162.406 99 160.406 102.2C158.54 105.4 156.673 108.533 154.806 111.6C154.406 112.267 153.473 112.6 152.006 112.6ZM230.186 125.6C229.786 124.933 229.586 124.067 229.586 123C229.586 122.467 229.719 121.8 229.986 121C230.119 120.6 230.386 119.467 230.786 117.6C231.319 115.867 231.853 114.133 232.386 112.4C232.919 110.533 233.253 109.467 233.386 109.2C233.519 109.2 233.919 108.2 234.586 106.2C235.386 104.067 236.253 101.8 237.186 99.4C238.119 97 238.853 95.4667 239.386 94.8C239.919 93.3333 240.786 91.5333 241.986 89.4C243.319 87.1333 244.519 84.4667 245.586 81.4L245.186 81.8C243.586 83.4 241.519 85.8667 238.986 89.2C236.586 92.4 233.919 95.7333 230.986 99.2C228.053 102.533 225.053 105.467 221.986 108C219.053 110.4 216.253 111.6 213.586 111.6C211.453 111.6 208.986 110.867 206.186 109.4C203.386 107.8 201.986 105 201.986 101C201.986 98.7333 202.586 96.1333 203.786 93.2C203.786 92.9333 203.853 92.6 203.986 92.2C204.253 91.8 204.519 91.5333 204.786 91.4C205.053 91.2667 205.319 91.3333 205.586 91.6C205.853 91.7333 206.053 91.6667 206.186 91.4C206.319 91.4 206.586 91.3333 206.986 91.2C207.386 90.9333 207.519 90.7333 207.386 90.6C207.253 90.4667 206.919 90.4 206.386 90.4C205.853 90.2667 205.586 90.1333 205.586 90C205.453 89.7333 205.453 89.5333 205.586 89.4C205.719 89.1333 205.786 88.8667 205.786 88.6C205.786 88.2 205.919 87.9333 206.186 87.8C206.586 87.5333 206.853 87.2667 206.986 87C206.986 86.3333 207.386 85.8667 208.186 85.6C208.319 85.4667 208.519 85.4 208.786 85.4C209.319 85.4 209.453 85.2667 209.186 85C208.919 84.6 208.786 84.2 208.786 83.8C208.919 83.5333 209.119 83.2667 209.386 83C209.786 82.6 210.053 82.3333 210.186 82.2C210.453 81.9333 210.786 81.4667 211.186 80.8C211.719 80 212.119 79.5333 212.386 79.4C212.653 79.4 212.786 79.5333 212.786 79.8C212.919 79.9333 213.053 79.9333 213.186 79.8C213.453 79.5333 213.519 79.2 213.386 78.8C213.253 78.4 213.319 78.0667 213.586 77.8C213.853 77.5333 214.253 77.0667 214.786 76.4C215.319 75.7333 215.719 75.3333 215.986 75.2C216.253 74.9333 216.386 74.9333 216.386 75.2C216.386 75.3333 216.453 75.4 216.586 75.4C216.853 75.4 217.053 75.1333 217.186 74.6C217.319 73.9333 217.453 73.5333 217.586 73.4C217.853 73.2667 218.186 73.2667 218.586 73.4C219.119 73.4 219.453 73.3333 219.586 73.2C219.853 73.0667 219.853 72.8667 219.586 72.6C219.453 72.2 219.453 71.8667 219.586 71.6C219.586 71.3333 219.719 71.1333 219.986 71C220.253 70.8667 220.453 70.7333 220.586 70.6C222.053 69.2667 223.519 68 224.986 66.8C226.586 65.6 228.186 64.5333 229.786 63.6C230.053 63.4667 230.319 63.3333 230.586 63.2C230.986 63.0667 231.319 63 231.586 63C231.853 63 232.053 63.0667 232.186 63.2C232.319 63.3333 232.453 63.4 232.586 63.4C232.853 63.1333 232.919 62.9333 232.786 62.8C232.786 62.5333 232.853 62.2667 232.986 62C233.119 61.7333 233.386 61.5333 233.786 61.4C234.186 61.2667 234.453 61.1333 234.586 61C236.186 60.3333 237.786 59.8 239.386 59.4C240.986 58.8667 242.519 58.6 243.986 58.6C246.253 58.6 248.453 59.1333 250.586 60.2C251.386 60.2 252.319 60.3333 253.386 60.6L254.586 58.6C254.853 58.0667 255.319 57.8 255.986 57.8H256.586C256.986 57.8 257.186 57.6 257.186 57.2C257.186 56.8 256.986 55.9333 256.586 54.6C256.586 53.5333 257.053 52.9333 257.986 52.8L258.386 52.6C258.919 49.8 259.653 47.9333 260.586 47L261.986 45.4C263.453 43.6667 264.586 41.8 265.386 39.8C265.653 39.2667 265.986 38.8 266.386 38.4C266.919 38 267.319 37.5333 267.586 37C267.853 36.6 267.919 36.2 267.786 35.8C267.653 35.2667 267.653 34.8667 267.786 34.6C270.053 31 272.586 27.8 275.386 25C275.653 24.3333 275.986 23.6667 276.386 23C276.919 22.3333 277.453 21.6667 277.986 21C278.653 20.0667 279.453 19.4 280.386 19C281.319 18.6 282.253 17.9333 283.186 17C283.453 16.7333 283.519 16.3333 283.386 15.8C283.386 15.1333 283.519 14.6667 283.786 14.4C288.053 10.5333 292.853 7.33333 298.186 4.8C303.519 2.13333 307.719 0.79999 310.786 0.79999C311.853 0.79999 312.853 0.933326 313.786 1.2C314.719 1.33333 315.719 1.39999 316.786 1.39999H317.186C317.853 1.39999 318.453 1.6 318.986 2C319.653 2.26666 320.319 2.46666 320.986 2.59999C321.519 2.59999 322.186 2.73333 322.986 3C323.653 3.26666 324.053 3.66666 324.186 4.19999C324.319 4.73333 324.253 5.13333 323.986 5.39999C323.853 5.53333 323.653 5.53333 323.386 5.39999C323.119 5.26666 322.786 5.19999 322.386 5.19999C322.119 5.06666 321.853 4.93333 321.586 4.8C321.319 4.53333 321.053 4.33333 320.786 4.19999C320.253 4.19999 319.653 4.33333 318.986 4.59999C318.453 4.73333 317.919 4.73333 317.386 4.59999C316.053 4.59999 315.186 4.46666 314.786 4.19999C314.386 3.93333 313.653 3.93333 312.586 4.19999C312.453 4.19999 312.053 4.26666 311.386 4.39999C310.719 4.53332 310.253 4.59999 309.986 4.59999C305.319 5.79999 301.253 7.79999 297.786 10.6C294.453 13.4 291.453 16.5333 288.786 20C286.253 23.3333 283.786 26.6 281.386 29.8C280.853 30.8667 280.319 31.9333 279.786 33C279.253 34.0667 278.719 34.9333 278.186 35.6C278.053 35.7333 277.919 35.6667 277.786 35.4C277.653 35.1333 277.519 35.1333 277.386 35.4C276.986 35.8 276.719 36.4667 276.586 37.4C276.453 38.3333 276.186 39.0667 275.786 39.6C275.653 39.7333 275.453 39.6667 275.186 39.4C275.053 39 274.919 38.9333 274.786 39.2C274.653 39.4667 274.519 40 274.386 40.8C274.253 41.6 274.053 42.1333 273.786 42.4C272.319 44.6667 270.653 46.8 268.786 48.8C267.053 50.8 265.386 53.2 263.786 56C261.253 60.1333 258.319 65.1333 254.986 71C251.653 76.7333 248.786 82 246.386 86.8C245.453 88.5333 244.786 90.0667 244.386 91.4C243.986 92.6 243.586 93.7333 243.186 94.8C242.919 95.6 242.786 96.0667 242.786 96.2C242.786 97.2667 243.386 97.8 244.586 97.8C244.986 97.8 245.386 97.7333 245.786 97.6C246.186 97.3333 246.586 97.1333 246.986 97C247.386 96.7333 247.853 96.5333 248.386 96.4C248.919 96.2667 249.386 96.0667 249.786 95.8C249.919 95.6667 250.719 95.2 252.186 94.4C253.653 93.4667 255.053 92.3333 256.386 91C256.653 90.8667 256.986 90.6 257.386 90.2C257.786 89.8 258.053 89.5333 258.186 89.4L260.386 87.6C260.653 87.2 260.986 87 261.386 87C261.919 87 262.319 87.2667 262.586 87.8C262.853 88.3333 262.786 88.8667 262.386 89.4C262.253 89.6667 261.853 90 261.186 90.4C260.519 90.6667 259.853 91.1333 259.186 91.8C258.119 92.7333 256.853 93.7333 255.386 94.8C254.053 95.8667 252.786 96.8 251.586 97.6C251.053 97.8667 250.453 98.2667 249.786 98.8C249.119 99.2 248.653 99.6667 248.386 100.2L246.586 103C246.586 103.267 246.453 103.4 246.186 103.4C246.053 103.267 245.653 103.467 244.986 104C244.853 104.133 244.786 104.4 244.786 104.8C244.786 105.2 244.653 105.533 244.386 105.8C244.253 106.2 244.053 106.533 243.786 106.8C243.519 106.933 243.386 107.067 243.386 107.2C243.386 107.6 243.186 107.867 242.786 108C242.386 108.133 242.053 108.333 241.786 108.6C241.653 108.733 241.653 108.933 241.786 109.2C241.919 109.467 241.919 109.733 241.786 110L239.986 114.2C239.853 114.467 239.653 114.733 239.386 115C239.253 115.267 239.053 115.467 238.786 115.6C238.653 115.733 238.453 115.667 238.186 115.4C237.919 115.267 237.719 115.333 237.586 115.6C237.586 115.867 237.653 116.267 237.786 116.8C238.053 117.333 237.986 117.733 237.586 118C237.186 118.267 236.853 118.8 236.586 119.6C236.319 120.533 236.053 121.2 235.786 121.6C235.386 122.133 234.919 122.467 234.386 122.6C233.986 122.733 233.586 123.133 233.186 123.8C233.053 123.933 232.586 124.467 231.786 125.4C231.119 126.467 230.586 126.533 230.186 125.6ZM210.386 108C210.786 108 211.386 107.867 212.186 107.6C215.919 105.6 219.186 103.533 221.986 101.4C221.986 101.267 222.386 101.067 223.186 100.8C223.986 100.533 224.319 100.333 224.186 100.2L225.186 100C225.186 100 225.386 100.067 225.786 100.2C226.186 100.333 226.253 100.133 225.986 99.6C226.653 98.9333 226.786 98.5333 226.386 98.4C225.986 98.2667 225.853 98.2 225.986 98.2C226.386 97.5333 226.719 97.2 226.986 97.2C227.253 97.2 227.653 96.9333 228.186 96.4C228.586 96.1333 228.986 95.8667 229.386 95.6C229.786 95.2 230.119 94.8667 230.386 94.6C230.386 94.4667 230.386 94.4 230.386 94.4C230.519 94.2667 230.586 94.1333 230.586 94C230.586 94 230.786 94 231.186 94C231.719 93.8667 232.053 93.6 232.186 93.2C233.386 92.9333 233.586 92.8 232.786 92.8C231.986 92.6667 231.586 92.5333 231.586 92.4C231.586 92.4 231.853 92.2 232.386 91.8C232.919 91.4 233.053 91.1333 232.786 91V90.8L233.386 90L234.186 89.8L234.386 89.2C234.386 88.8 234.853 88.4 235.786 88C236.853 87.4667 237.453 87 237.586 86.6C239.586 83.9333 241.253 81.6 242.586 79.6C244.053 77.4667 245.053 75.7333 245.586 74.4C245.853 73.8667 246.119 73.4 246.386 73C246.653 72.6 246.919 72.2 247.186 71.8C247.453 70.7333 247.719 69.7333 247.986 68.8C248.253 67.7333 248.586 66.6 248.986 65.4C248.453 65.2667 247.586 65.2 246.386 65.2C244.386 65.2 242.053 65.6 239.386 66.4C236.853 67.2 234.053 68.7333 230.986 71C230.453 71.4 229.786 72 228.986 72.8C228.319 73.6 227.719 73.9333 227.186 73.8H226.786C226.386 73.8 226.186 74.0667 226.186 74.6C226.319 75 226.119 75.4667 225.586 76C225.319 76.2667 224.986 76.5333 224.586 76.8C224.186 76.9333 223.719 77.2667 223.186 77.8C222.919 78.0667 222.719 78.4 222.586 78.8C222.453 79.0667 222.186 79.4 221.786 79.8C221.253 80.4667 220.586 81.2 219.786 82C219.119 82.6667 218.519 83.2667 217.986 83.8C217.453 84.3333 216.786 85 215.986 85.8C215.319 86.6 214.786 87.4 214.386 88.2C214.253 88.3333 214.053 88.2 213.786 87.8C213.519 87.4 213.319 87.2667 213.186 87.4V87.6C213.186 87.8667 213.319 88.2667 213.586 88.8C213.853 89.2 213.853 89.5333 213.586 89.8C213.453 90.0667 213.186 90.6 212.786 91.4C212.519 92.2 212.253 92.8 211.986 93.2C210.919 95.3333 209.986 97.4667 209.186 99.6C208.519 101.733 208.186 103.533 208.186 105C208.186 107 208.919 108 210.386 108ZM274.166 113.4C270.832 113.4 267.899 112.467 265.366 110.6C262.832 108.733 261.566 105.533 261.566 101C261.566 99.2667 261.766 97.5333 262.166 95.8C262.566 93.9333 263.032 92.1333 263.566 90.4C263.832 88.6667 264.232 87.1333 264.766 85.8C264.899 85.2667 264.966 85 264.966 85C265.099 84.8667 265.432 84.6667 265.966 84.4L267.566 82V81.2C267.432 81.2 267.366 81.2 267.366 81.2C267.366 81.0667 267.366 81 267.366 81C267.366 80.6 267.699 80.1333 268.366 79.6C269.032 79.0667 269.366 78.8 269.366 78.8C269.499 78.1333 269.699 77.8 269.966 77.8C270.232 77.8 270.566 77.6 270.966 77.2H273.166V76.8C273.166 76.1333 272.832 75.8667 272.166 76C271.632 76 271.366 75.9333 271.366 75.8C271.366 75.6667 271.566 75.4 271.966 75C272.499 74.4667 272.832 74.1333 272.966 74C273.366 73.4667 273.699 73 273.966 72.6C274.232 72.0667 274.632 71.6667 275.166 71.4C277.566 68.4667 279.032 66.6 279.566 65.8C280.232 65 280.899 64.4 281.566 64C281.832 64 282.032 64.1333 282.166 64.4C282.432 64.5333 282.432 64.7333 282.166 65C282.432 65.4 282.632 65.4667 282.766 65.2C283.032 64.9333 283.166 64.8 283.166 64.8L283.966 64.4C283.699 64.1333 283.566 63.8 283.566 63.4C283.566 62.7333 283.699 62.2 283.966 61.8C284.232 61.2667 284.699 60.7333 285.366 60.2C286.166 59.6667 286.566 59.3333 286.566 59.2C287.366 58.9333 287.966 58.6667 288.366 58.4C288.899 58.1333 289.432 58 289.966 58C290.899 58 291.832 58.3333 292.766 59C295.299 60.3333 297.432 61.6667 299.166 63C300.899 64.3333 301.766 66.2 301.766 68.6C301.766 71.1333 300.699 73.3333 298.566 75.2C296.566 76.9333 294.099 78.4 291.166 79.6C288.232 80.8 285.299 81.8 282.366 82.6C279.566 83.2667 277.366 83.8 275.766 84.2C274.832 84.3333 274.366 84.7333 274.366 85.4C274.499 85.9333 274.432 86.5333 274.166 87.2L272.766 89.4L271.566 92.2L270.566 94C269.632 94.8 269.299 95.4 269.566 95.8C269.832 96.2 270.299 96.1333 270.966 95.6C271.099 95.7333 271.166 95.9333 271.166 96.2C271.166 96.7333 271.032 97.4 270.766 98.2C270.499 98.8667 270.299 99.4 270.166 99.8C270.032 100.333 270.032 100.6 270.166 100.6C270.432 100.467 270.566 100.733 270.566 101.4L270.766 104.2C271.566 106.733 273.366 108.2 276.166 108.6C276.432 108.6 276.699 108.667 276.966 108.8C277.366 108.8 277.699 108.8 277.966 108.8C280.366 108.8 281.632 108.6 281.766 108.2C282.032 107.8 282.366 107.533 282.766 107.4C283.966 107.133 284.966 106.867 285.766 106.6C286.699 106.333 287.632 105.933 288.566 105.4C290.166 104.733 291.699 103.867 293.166 102.8C294.632 101.733 296.166 100.667 297.766 99.6L299.766 98.2C299.899 97.9333 299.899 97.7333 299.766 97.6C299.632 97.4667 299.632 97.3333 299.766 97.2C300.032 97.0667 300.232 97.0667 300.366 97.2C300.632 97.2 300.832 97.1333 300.966 97C301.232 96.8667 301.499 96.6667 301.766 96.4C302.032 96 302.299 95.6667 302.566 95.4C302.832 95.1333 302.966 94.8667 302.966 94.6C303.099 94.3333 303.299 94.0667 303.566 93.8C304.632 92.7333 305.699 91.6 306.766 90.4C307.966 89.2 308.966 88.1333 309.766 87.2C310.699 85.8667 311.432 85.2 311.966 85.2C312.232 85.2 312.366 85.3333 312.366 85.6C312.366 86.2667 311.899 87.2667 310.966 88.6C308.699 91.9333 306.099 95.2 303.166 98.4C300.232 101.467 297.032 104.267 293.566 106.8C291.032 108.533 288.032 110.067 284.566 111.4C281.099 112.733 277.632 113.4 274.166 113.4ZM277.166 81.2C279.166 81.0667 281.766 80.5333 284.966 79.6C288.166 78.5333 290.832 77.1333 292.966 75.4C295.232 73.5333 296.366 71.4667 296.366 69.2C296.366 67.0667 295.232 65 292.966 63C291.099 64.3333 289.032 66.2667 286.766 68.8C284.632 71.2 282.699 73.6 280.966 76C279.232 78.2667 277.966 80 277.166 81.2ZM314.702 112.6C313.368 112.6 311.968 112.333 310.502 111.8C309.035 111.133 308.502 110.4 308.902 109.6C309.435 108.533 310.035 107.467 310.702 106.4C311.502 105.2 312.235 103.933 312.902 102.6L315.102 98.4C315.368 97.7333 315.635 97.2667 315.902 97C316.302 96.6 316.635 96.1333 316.902 95.6C317.035 95.4667 317.102 95.1333 317.102 94.6C317.102 93.9333 317.368 93.2 317.902 92.4C318.568 91.4667 319.035 90.6 319.302 89.8C319.435 89.6667 319.568 90.0667 319.702 91C319.835 91.9333 320.168 91.8667 320.702 90.8C320.835 90.6667 320.768 90.4667 320.502 90.2C320.368 89.9333 320.302 89.6667 320.302 89.4C320.302 89.1333 320.368 89 320.502 89C320.768 88.8667 320.902 88.7333 320.902 88.6C321.035 88.2 320.902 88.0667 320.502 88.2C320.235 88.2 320.102 88.1333 320.102 88C320.368 87.6 320.635 87.3333 320.902 87.2C321.302 87.0667 321.568 86.8667 321.702 86.6C321.702 86.3333 321.568 86.2 321.302 86.2C321.168 86.0667 321.168 85.9333 321.302 85.8C321.968 83.9333 322.702 81.7333 323.502 79.2C324.302 76.6667 324.902 74.3333 325.302 72.2C325.302 72.2 325.168 72.1333 324.902 72C324.635 71.7333 324.502 71.4667 324.502 71.2L323.102 70.2C321.502 71.6667 319.768 72.9333 317.902 74C317.768 74.1333 317.502 74.2 317.102 74.2C316.568 74.2 316.235 73.9333 316.102 73.4C315.968 72.8667 316.168 72.4 316.702 72C317.368 71.6 317.902 71.3333 318.302 71.2C318.702 70.9333 319.168 70.5333 319.702 70C319.968 69.7333 320.102 69.4667 320.102 69.2C320.235 68.9333 320.368 68.6667 320.502 68.4L321.302 67.4C321.302 66.7333 321.435 66.2 321.702 65.8C321.968 65.5333 322.168 65.4 322.302 65.4C322.435 65.4 322.502 65.4 322.502 65.4V65C322.502 64.4667 322.702 64.1333 323.102 64C323.635 63.8667 323.902 63.6667 323.902 63.4C324.168 61.5333 325.768 60.1333 328.702 59.2C331.635 58.2667 334.235 57.8 336.502 57.8C338.768 57.8 339.902 58.1333 339.902 58.8C339.902 59.2 339.502 59.6667 338.702 60.2C338.302 60.4667 337.635 61.0667 336.702 62C335.768 62.9333 334.902 64.0667 334.102 65.4L332.702 67.8L331.302 69.6C330.368 71.7333 329.035 75 327.302 79.4C325.568 83.8 323.768 89.3333 321.902 96C322.302 95.4667 323.235 94.3333 324.702 92.6C326.168 90.8667 327.902 88.8667 329.902 86.6C331.902 84.3333 333.835 82.2 335.702 80.2C337.568 78.0667 339.102 76.4 340.302 75.2L341.302 74.6C341.568 74.3333 341.835 74 342.102 73.6C342.502 73.0667 342.835 72.6667 343.102 72.4C343.235 72.2667 343.302 72.5333 343.302 73.2C343.435 73.7333 343.568 73.9333 343.702 73.8C344.235 73.4 344.502 72.8 344.502 72C344.635 71.2 344.968 70.6667 345.502 70.4C346.968 69.2 348.968 67.5333 351.502 65.4C354.168 63.1333 356.902 61.8 359.702 61.4C359.968 61.1333 360.368 61.0667 360.902 61.2C361.568 61.2 362.035 61.1333 362.302 61C362.568 61 362.768 60.9333 362.902 60.8C363.035 60.6667 363.368 60.6 363.902 60.6C364.168 60.6 364.702 60.8 365.502 61.2C366.435 61.6 366.968 62.1333 367.102 62.8C367.902 63.3333 368.302 64.1333 368.302 65.2C368.302 67.0667 367.302 68.4667 365.302 69.4C364.635 70.0667 363.902 70.7333 363.102 71.4C362.302 71.9333 361.502 72.5333 360.702 73.2C360.435 73.4667 360.235 73.6 360.102 73.6C359.168 74.4 358.368 75.2667 357.702 76.2C357.035 77.1333 356.702 78.3333 356.702 79.8C356.702 79.9333 356.835 80.1333 357.102 80.4C357.368 80.5333 357.435 80.6667 357.302 80.8C357.702 81.2 358.302 81.4667 359.102 81.6C359.902 81.6 360.702 81.6 361.502 81.6C362.835 81.6 364.835 81.0667 367.502 80H367.902C368.035 80 368.102 80.0667 368.102 80.2C368.102 80.4667 367.835 80.9333 367.302 81.6C366.768 82.1333 366.168 82.5333 365.502 82.8C364.035 83.3333 362.502 83.6667 360.902 83.8C359.302 83.8 358.168 83.8 357.502 83.8C355.102 83.8 353.568 83.3333 352.902 82.4C352.368 81.4667 351.835 80.3333 351.302 79V78L352.302 77C352.168 76.6 351.968 76.2 351.702 75.8C351.435 75.4 351.302 74.9333 351.302 74.4C351.302 73.0667 351.835 71.5333 352.902 69.8C351.435 70.2 349.568 71.3333 347.302 73.2C345.168 74.9333 342.968 77 340.702 79.4C338.435 81.6667 336.368 83.9333 334.502 86.2C332.635 88.3333 331.168 90.0667 330.102 91.4C329.702 91.9333 329.235 92.2667 328.702 92.4C328.302 92.4 327.968 92.6 327.702 93C327.568 93.1333 327.702 93.2 328.102 93.2C328.635 93.2 328.835 93.2667 328.702 93.4C326.968 96.0667 325.102 99 323.102 102.2C321.235 105.4 319.368 108.533 317.502 111.6C317.102 112.267 316.168 112.6 314.702 112.6ZM397.281 50.6C396.881 50.6 396.481 50.4667 396.081 50.2C395.815 49.9333 395.415 49.6 394.881 49.2C394.615 49.0667 394.281 48.9333 393.881 48.8C393.615 48.5333 393.481 48.1333 393.481 47.6C393.348 47.4667 393.081 47.4 392.681 47.4C392.015 47.4 391.681 46.9333 391.681 46C391.681 44.9333 392.215 44.2 393.281 43.8L394.281 43V43.2L395.081 42.2H395.481C396.281 42.2 396.815 41.8 397.081 41C397.481 40.2 398.281 39.6667 399.481 39.4C400.281 39.1333 400.948 39.2 401.481 39.6C402.015 40 402.681 40.2 403.481 40.2C404.281 40.2 405.148 39.9333 406.081 39.4L409.081 38.8C409.481 38.8 409.681 38.9333 409.681 39.2C409.681 39.4667 409.281 39.8 408.481 40.2C407.815 40.6 407.348 40.9333 407.081 41.2L406.881 41.4L406.681 41.8L405.881 42.8C405.081 43.7333 404.148 44.8667 403.081 46.2C402.148 47.4 401.148 48.4 400.081 49.2C398.881 50.1333 397.948 50.6 397.281 50.6ZM366.881 113.6C366.081 113.6 365.681 113.133 365.681 112.2C365.681 111.533 365.881 110.733 366.281 109.8C367.348 107.533 368.548 104.333 369.881 100.2C371.348 96.0667 373.148 92.5333 375.281 89.6C376.748 86.6667 378.081 83.8 379.281 81C380.615 78.0667 381.881 75.1333 383.081 72.2C383.081 72.2 382.948 72.1333 382.681 72C382.548 71.7333 382.481 71.4667 382.481 71.2C381.681 70.6667 380.815 69.9333 379.881 69C379.081 67.9333 379.015 66.8667 379.681 65.8C379.948 65.5333 380.148 65.4 380.281 65.4C380.415 65.4 380.481 65.4 380.481 65.4C380.481 65.2667 380.415 65.2 380.281 65.2C380.281 65.0667 380.281 65 380.281 65C380.281 64.4667 380.548 64.1333 381.081 64C381.615 63.8667 381.881 63.6667 381.881 63.4C382.148 61.5333 383.748 60.1333 386.681 59.2C389.615 58.2667 392.215 57.8 394.481 57.8C396.748 57.8 397.881 58.1333 397.881 58.8C397.881 59.0667 397.481 59.5333 396.681 60.2C396.281 60.4667 395.615 61.0667 394.681 62C393.748 62.9333 392.881 64.0667 392.081 65.4L390.481 67.8C390.348 68.0667 390.148 68.4 389.881 68.8C389.748 69.0667 389.548 69.3333 389.281 69.6C387.148 73.4667 385.415 76.7333 384.081 79.4C382.748 82.0667 381.148 85.4667 379.281 89.6C379.015 90.4 378.881 90.9333 378.881 91.2C378.881 92.1333 379.415 92.6 380.481 92.6C381.281 92.6 382.081 92.4 382.881 92L384.881 91.2C388.081 88.2667 391.415 85.8 394.881 83.8C395.015 83.8 395.081 83.8 395.081 83.8C395.215 83.6667 395.348 83.6 395.481 83.6C395.881 83.6 396.148 83.8667 396.281 84.4C396.415 84.8 396.281 85.1333 395.881 85.4C392.015 87.5333 388.415 90.2667 385.081 93.6C384.948 93.8667 384.815 94.1333 384.681 94.4C384.548 94.6667 384.348 94.9333 384.081 95.2C383.815 95.4667 383.415 95.9333 382.881 96.6C382.481 97.2667 382.281 97.6667 382.281 97.8C382.148 98.2 381.948 98.3333 381.681 98.2C381.548 98.0667 381.148 98.2667 380.481 98.8C380.348 98.9333 380.215 99.2 380.081 99.6C380.081 100 380.015 100.333 379.881 100.6C379.748 101 379.481 101.333 379.081 101.6C378.815 101.733 378.681 101.867 378.681 102C378.548 102.533 378.281 102.867 377.881 103C377.615 103 377.348 103.133 377.081 103.4C376.948 103.533 376.948 103.733 377.081 104C377.215 104.267 377.148 104.533 376.881 104.8C376.748 105.2 376.615 105.4 376.481 105.4C376.348 105.267 376.148 105.333 375.881 105.6C375.348 106.133 374.948 106.4 374.681 106.4C373.881 106.667 373.548 106.867 373.681 107C373.948 107.133 374.148 107.267 374.281 107.4C374.548 107.4 374.348 107.6 373.681 108C373.415 108.133 373.148 108.533 372.881 109.2C372.615 109.733 372.348 110.133 372.081 110.4C371.681 110.667 371.281 110.867 370.881 111C370.615 111.133 370.281 111.4 369.881 111.8C368.681 113 367.681 113.6 366.881 113.6ZM435.68 113.6C434.88 113.6 434.48 113.133 434.48 112.2C434.48 111.533 434.68 110.733 435.08 109.8C436.146 107.533 437.346 104.333 438.68 100.2C440.146 96.0667 441.946 92.5333 444.08 89.6C445.546 86.6667 446.88 83.8 448.08 81C449.413 78.0667 450.68 75.1333 451.88 72.2C451.88 72.2 451.746 72.1333 451.48 72C451.213 71.7333 451.08 71.4667 451.08 71.2C450.413 70.6667 449.613 69.9333 448.68 69C447.746 67.9333 447.68 66.8667 448.48 65.8C448.746 65.5333 448.88 65.4 448.88 65.4C449.013 65.4 449.08 65.4 449.08 65.4C449.08 65.2667 449.013 65.2 448.88 65.2C448.88 65.2 448.88 65.1333 448.88 65L448.68 64.8C448.546 64.8 448.413 64.8 448.28 64.8C448.28 64.6667 448.213 64.6 448.08 64.6C447.546 64.6 446.946 64.7333 446.28 65C445.613 65.1333 444.946 65.2 444.28 65.2C443.48 65.2 442.413 65.5333 441.08 66.2C439.746 66.7333 438.546 67.2 437.48 67.6C436.946 67.7333 436.613 67.8 436.48 67.8C436.48 67.6667 436.213 67.7333 435.68 68C435.546 68.1333 435.546 67.9333 435.68 67.4C435.946 66.7333 436.08 66.2667 436.08 66C436.08 65.8667 436.013 65.8 435.88 65.8C435.613 65.8 435.08 66.2 434.28 67C433.48 67.6667 432.946 68.0667 432.68 68.2C432.546 68.3333 432.48 68.5333 432.48 68.8C432.613 69.0667 432.68 69.3333 432.68 69.6C432.68 70 432.346 70.4667 431.68 71C431.013 71.4 430.546 71.7333 430.28 72C429.746 72.4 429.08 72.6667 428.28 72.8C427.613 72.8 426.946 73.0667 426.28 73.6C425.48 74.1333 425.08 74.5333 425.08 74.8C425.213 75.0667 424.813 75.5333 423.88 76.2C422.68 77.1333 421.013 78.5333 418.88 80.4C416.88 82.2667 415.346 83.9333 414.28 85.4C411.746 88.4667 409.413 92 407.28 96C405.28 100 404.28 103.133 404.28 105.4C404.28 107.133 405.013 108 406.48 108C406.746 108 407.013 108 407.28 108C407.546 107.867 407.88 107.733 408.28 107.6L413.48 104.6L414.68 104.4V104.2L415.48 104.8C415.613 104.667 415.546 104.467 415.28 104.2C415.146 103.8 415.146 103.6 415.28 103.6C415.413 103.6 415.48 103.667 415.48 103.8C415.613 103.8 415.746 103.8 415.88 103.8L416.28 103.2C416.28 103.2 416.48 103.267 416.88 103.4C417.413 103.4 417.813 103.267 418.08 103C418.48 102.867 418.546 102.667 418.28 102.4C418.146 102.133 417.946 101.933 417.68 101.8L419.08 100.6C419.213 100.333 419.746 100.067 420.68 99.8C422.946 98.3333 424.813 96.6 426.28 94.6C427.88 92.4667 429.68 90.5333 431.68 88.8H431.88L434.28 86.4L434.08 85.8L436.68 82.8H437.08C437.213 82.5333 437.48 82.2 437.88 81.8C438.413 81.4 438.746 81.0667 438.88 80.8C439.146 80.6667 439.746 80 440.68 78.8C441.746 77.4667 442.746 76.4 443.68 75.6C444.746 74.8 445.346 74.4 445.48 74.4C445.613 74.4 445.68 74.4667 445.68 74.6C445.68 75 445.48 75.6 445.08 76.4C444.813 77.2 444.546 77.7333 444.28 78C443.346 79.4667 442.146 81.1333 440.68 83C439.213 84.7333 438.346 85.8 438.08 86.2C436.48 87.9333 434.546 90.2667 432.28 93.2C430.013 96 427.546 98.8 424.88 101.6C422.213 104.4 419.546 106.8 416.88 108.8C414.346 110.667 411.946 111.6 409.68 111.6C407.546 111.6 405.28 110.933 402.88 109.6C400.48 108.267 399.28 105.733 399.28 102C399.28 100.8 399.413 99.4667 399.68 98C400.08 96.4 400.68 94.7333 401.48 93C401.48 93 401.613 92.8667 401.88 92.6C402.146 92.2 402.346 92.0667 402.48 92.2C402.746 91.8 402.813 91.4 402.68 91C402.68 90.4667 402.68 90.1333 402.68 90L403.08 89.6C403.346 88.1333 404.346 86.8 406.08 85.6C407.813 84.4 408.746 83.4667 408.88 82.8C409.013 82.6667 409.08 82.4667 409.08 82.2L409.88 79.6V78.8H410.68L411.28 78L411.48 77.6C411.213 77.4667 411.28 77.2667 411.68 77C412.213 76.6 412.48 76.4 412.48 76.4C412.613 76.1333 412.746 75.9333 412.88 75.8C413.146 75.6667 413.346 75.5333 413.48 75.4H414.88C415.146 75 415.013 74.8 414.48 74.8C413.946 74.8 413.68 74.8 413.68 74.8C413.68 74.6667 413.68 74.6 413.68 74.6C413.813 74.4667 413.88 74.3333 413.88 74.2L416.08 72.4C416.746 71.8667 417.413 71.4 418.08 71C418.746 70.6 419.346 70.1333 419.88 69.6C420.28 69.6 420.346 69.8 420.08 70.2C420.213 70.4667 420.346 70.4667 420.48 70.2C420.746 69.9333 420.88 69.8 420.88 69.8L421.88 69.6V69.4C421.88 69.1333 421.946 68.7333 422.08 68.2C422.213 67.6667 422.28 67.3333 422.28 67.2C425.08 65.0667 428.013 63.2 431.08 61.6C434.146 59.8667 437.146 59 440.08 59C443.546 59 446.68 60.3333 449.48 63L450.48 63.6C450.613 63.6 450.68 63.5333 450.68 63.4C450.946 61.5333 452.48 60.1333 455.28 59.2C458.213 58.2667 460.813 57.8 463.08 57.8C465.48 57.8 466.68 58.1333 466.68 58.8C466.68 59.0667 466.28 59.5333 465.48 60.2C465.08 60.4667 464.413 61.0667 463.48 62C462.546 62.9333 461.613 64.0667 460.68 65.4C460.546 65.8 460.346 66.2 460.08 66.6C459.813 67 459.546 67.4 459.28 67.8C459.146 68.0667 458.946 68.4 458.68 68.8C458.546 69.0667 458.346 69.3333 458.08 69.6C455.813 73.4667 454.013 76.7333 452.68 79.4C451.346 82.0667 449.746 85.4667 447.88 89.6C447.613 90.4 447.48 90.8667 447.48 91C447.48 92.0667 448.08 92.6 449.28 92.6C450.08 92.6 450.88 92.4 451.68 92L453.68 91.2C456.88 88.2667 460.213 85.8 463.68 83.8C463.813 83.8 463.88 83.8 463.88 83.8C464.013 83.6667 464.146 83.6 464.28 83.6C464.68 83.6 464.946 83.8667 465.08 84.4C465.213 84.8 465.08 85.1333 464.68 85.4C460.813 87.5333 457.213 90.2667 453.88 93.6C453.746 93.8667 453.613 94.1333 453.48 94.4C453.346 94.6667 453.146 94.9333 452.88 95.2C452.48 95.4667 452.08 95.9333 451.68 96.6C451.28 97.2667 451.08 97.6667 451.08 97.8C450.946 98.2 450.746 98.3333 450.48 98.2C450.346 98.0667 449.946 98.2667 449.28 98.8C449.146 98.9333 449.013 99.2 448.88 99.6C448.88 100 448.813 100.333 448.68 100.6C448.413 101 448.146 101.333 447.88 101.6C447.613 101.733 447.48 101.867 447.48 102C447.346 102.533 447.08 102.867 446.68 103C446.413 103 446.146 103.133 445.88 103.4C445.746 103.4 445.68 103.467 445.68 103.6C445.68 104.8 445.546 105.333 445.28 105.2C445.013 105.067 444.746 105.2 444.48 105.6C444.213 106.133 443.88 106.4 443.48 106.4C442.68 106.667 442.346 106.867 442.48 107C442.746 107.133 442.946 107.267 443.08 107.4C443.346 107.4 443.146 107.6 442.48 108C442.213 108.133 441.946 108.533 441.68 109.2C441.413 109.733 441.146 110.133 440.88 110.4C440.48 110.667 440.08 110.867 439.68 111C439.28 111.133 438.946 111.4 438.68 111.8C437.48 113 436.48 113.6 435.68 113.6Z" fill="#362EBE"/>
</svg>
