<svg width="445" height="126" viewBox="0 0 445 126" fill="none" xmlns="http://www.w3.org/2000/svg">
<path d="M45.4 125.4C40.0667 125.4 34.7333 124.933 29.4 124C24.0667 123.2 19.2 121.667 14.8 119.4C10.5333 117.133 7.06667 113.933 4.4 109.8C1.73333 105.667 0.4 100.333 0.4 93.8C0.4 88.3333 1.46667 82.0667 3.6 75C5.86667 67.8 9.2 60.6 13.6 53.4C18 46.0667 23.4667 39.2667 30 33C36.6667 26.7333 44.3333 21.7333 53 18C61.8 14.1333 71.6667 12.2 82.6 12.2C98.6 12.2 110.267 14.8 117.6 20C124.933 25.0667 128.6 33 128.6 43.8C128.6 54.3333 126.4 64.4667 122 74.2C117.733 83.9333 111.733 92.6667 104 100.4C96.4 108.133 87.6 114.267 77.6 118.8C67.6 123.2 56.8667 125.4 45.4 125.4ZM43.8 122.4C51.9333 122.4 59.6667 120.867 67 117.8C74.4667 114.6 81.2 110.333 87.2 105C93.3333 99.5333 98.6 93.3333 103 86.4C107.533 79.4667 111 72.2 113.4 64.6C115.933 57 117.2 49.4667 117.2 42C117.2 33.7333 114.6 27.2 109.4 22.4C104.2 17.6 95.4 15.2 83 15.2C75.9333 15.2 68.8667 17 61.8 20.6C54.8667 24.0667 48.3333 28.7333 42.2 34.6C36.2 40.4667 30.8 46.9333 26 54C21.3333 61.0667 17.6667 68.2 15 75.4C12.3333 82.6 11 89.3333 11 95.6C11 104 13.4667 110.6 18.4 115.4C23.4667 120.067 31.9333 122.4 43.8 122.4ZM125.75 125.8C125.217 125.8 125.217 125.267 125.75 124.2C126.417 123 127.017 121.667 127.55 120.2C128.217 118.733 128.883 117.133 129.55 115.4C130.883 112.2 132.35 108.6 133.95 104.6C135.55 100.6 137.083 96.7333 138.55 93C140.017 89.1333 141.283 85.8667 142.35 83.2C143.55 80.4 144.35 78.6 144.75 77.8C142.883 79.8 140.617 82.3333 137.95 85.4C135.417 88.3333 133.017 91.2 130.75 94C128.483 96.8 126.75 99 125.55 100.6C125.15 101.133 124.817 101.4 124.55 101.4C124.283 101.4 124.15 101.067 124.15 100.4C124.15 99.3333 124.483 98.3333 125.15 97.4C127.683 94.2 130.483 90.6 133.55 86.6C136.75 82.6 139.617 78.9333 142.15 75.6C144.683 72.1333 146.283 69.8667 146.95 68.8C148.417 68.5333 150.55 68.1333 153.35 67.6C156.283 67.0667 158.283 66.3333 159.35 65.4C159.75 65 160.15 64.8 160.55 64.8C160.817 64.8 160.95 65.0667 160.95 65.6C161.083 66 160.95 66.4667 160.55 67C159.75 67.8 158.55 69.5333 156.95 72.2C155.483 74.8667 153.817 77.9333 151.95 81.4C150.083 84.8667 148.283 88.2 146.55 91.4C147.883 89.4 149.617 87.0667 151.75 84.4C154.017 81.6 156.483 78.9333 159.15 76.4C161.817 73.7333 164.483 71.5333 167.15 69.8C169.95 68.0667 172.55 67.2 174.95 67.2C176.683 67.2 178.15 67.6 179.35 68.4C180.55 69.0667 181.483 70.3333 182.15 72.2C182.55 73.1333 182.75 74.2 182.75 75.4C182.75 77.6667 182.15 79.8667 180.95 82C179.883 84 179.083 85.5333 178.55 86.6C178.417 87 177.95 87.4 177.15 87.8C176.35 88.0667 176.017 87.9333 176.15 87.4C176.283 86.7333 176.35 86.0667 176.35 85.4C176.483 84.7333 176.55 84 176.55 83.2C176.55 80.9333 176.083 78.8667 175.15 77C174.35 75.1333 172.817 74.2 170.55 74.2C168.417 74.2 165.817 75.5333 162.75 78.2C159.683 80.8667 156.617 83.9333 153.55 87.4C149.683 91.9333 146.617 96.2667 144.35 100.4C142.083 104.4 140.217 108.333 138.75 112.2C137.95 114.333 137.15 116.467 136.35 118.6C135.55 120.6 134.95 122.2 134.55 123.4C132.817 123.533 131.083 123.933 129.35 124.6C127.617 125.4 126.417 125.8 125.75 125.8ZM206.242 123.6C204.909 123.6 203.776 123.333 202.842 122.8C201.909 122.267 201.442 121.267 201.442 119.8C201.442 117.933 201.909 115.8 202.842 113.4C203.776 111 204.842 108.667 206.042 106.4C207.242 104 208.309 102.067 209.242 100.6C204.576 105.533 199.709 110.2 194.642 114.6C192.109 116.733 189.309 118.733 186.242 120.6C183.176 122.467 179.909 123.4 176.442 123.4C175.109 123.4 174.176 123 173.642 122.2C173.109 121.267 172.842 120.2 172.842 119C172.842 118.333 172.909 117.867 173.042 117.6C173.709 112.4 175.376 107 178.042 101.4C180.709 95.8 183.976 90.5333 187.842 85.6C191.709 80.6667 195.642 76.6667 199.642 73.6C202.709 71.3333 205.642 69.9333 208.442 69.4C211.242 68.7333 214.309 68.4 217.642 68.4H224.242C226.376 64.8 228.576 60.8 230.842 56.4C233.242 51.8667 235.576 47.4 237.842 43C240.242 38.6 242.442 34.7333 244.442 31.4C249.909 22.0667 255.909 14.6 262.442 8.99999C269.109 3.39999 276.509 0.59999 284.642 0.59999C286.376 0.59999 287.976 1.13332 289.442 2.19999C290.909 3.13333 291.576 4.6 291.442 6.6L291.042 13.8C291.042 13.9333 290.909 14.1333 290.642 14.4C290.376 14.5333 290.176 14.6 290.042 14.6C289.909 14.6 289.709 14.4667 289.442 14.2C289.042 11.8 287.842 9.99999 285.842 8.79999C283.842 7.46666 281.376 6.79999 278.442 6.79999C277.509 6.79999 276.442 6.86666 275.242 6.99999C274.176 7.13332 273.109 7.39999 272.042 7.79999C268.309 9.13333 264.776 11.8667 261.442 16C258.109 20 254.509 25.3333 250.642 32C249.309 34.5333 247.576 37.8667 245.442 42C243.309 46 241.042 50.3333 238.642 55C236.376 59.6667 234.176 64.2 232.042 68.6C230.042 73 228.309 76.7333 226.842 79.8C226.176 81.4 225.042 83.8667 223.442 87.2C221.842 90.4 220.109 93.9333 218.242 97.8C216.509 101.533 214.976 105 213.642 108.2C212.442 111.4 211.842 113.667 211.842 115C211.842 116.867 212.642 117.8 214.242 117.8C215.842 117.8 217.976 116.867 220.642 115C223.309 113 226.042 110.6 228.842 107.8C231.776 104.867 234.376 102.067 236.642 99.4C239.042 96.7333 240.709 94.7333 241.642 93.4C242.042 93.8 242.242 94.2667 242.242 94.8C242.242 95.7333 241.842 96.6667 241.042 97.6C240.376 98.5333 239.776 99.3333 239.242 100C236.842 103.2 233.842 106.667 230.242 110.4C226.776 114 222.976 117.133 218.842 119.8C214.709 122.333 210.509 123.6 206.242 123.6ZM184.642 116.6C186.242 116.6 188.442 115.467 191.242 113.2C194.176 110.8 197.309 107.867 200.642 104.4C203.976 100.8 207.109 97.0667 210.042 93.2C212.976 89.2 215.376 85.6 217.242 82.4C219.242 79.0667 220.242 76.5333 220.242 74.8C220.242 73.3333 219.776 72.3333 218.842 71.8C218.042 71.2667 216.976 71 215.642 71C213.509 71 211.176 71.8 208.642 73.4C206.242 74.8667 204.309 76.3333 202.842 77.8C201.242 79.2667 199.309 81.6 197.042 84.8C194.909 87.8667 192.776 91.2667 190.642 95C188.509 98.7333 186.709 102.333 185.242 105.8C183.776 109.267 183.042 112.067 183.042 114.2C183.042 115.8 183.576 116.6 184.642 116.6ZM249.231 124.6C243.765 124.6 239.965 123.533 237.831 121.4C235.698 119.267 234.631 116.667 234.631 113.6C234.631 109.733 235.631 105.6 237.631 101.2C239.765 96.8 241.765 93.0667 243.631 90C245.765 86.8 248.631 83.4667 252.231 80C255.831 76.5333 259.765 73.6 264.031 71.2C268.298 68.8 272.431 67.6 276.431 67.6C279.898 67.6 282.298 68.4667 283.631 70.2C284.965 71.8 285.631 73.7333 285.631 76C285.631 80.1333 284.365 83.5333 281.831 86.2C279.431 88.8667 276.431 91.0667 272.831 92.8C269.231 94.4 265.765 95.7333 262.431 96.8C260.431 97.3333 258.098 97.8667 255.431 98.4C252.765 98.9333 250.231 99.2 247.831 99.2C246.898 101.6 246.165 103.933 245.631 106.2C245.098 108.467 244.831 110.533 244.831 112.4C244.831 114.667 245.365 116.533 246.431 118C247.631 119.467 249.565 120.2 252.231 120.2C253.298 120.2 254.565 120.067 256.031 119.8C257.498 119.533 259.098 119.133 260.831 118.6C264.831 117.267 268.765 115.133 272.631 112.2C276.498 109.267 280.031 106.133 283.231 102.8C286.565 99.3333 289.098 96.4667 290.831 94.2C291.231 94.6 291.431 95.0667 291.431 95.6C291.431 96.2667 290.965 97.3333 290.031 98.8C287.365 102.533 283.898 106.4 279.631 110.4C275.365 114.4 270.631 117.8 265.431 120.6C260.231 123.267 254.831 124.6 249.231 124.6ZM249.431 95.2C251.165 95.3333 253.098 95.3333 255.231 95.2C257.498 94.9333 259.698 94.4667 261.831 93.8C267.298 92.2 271.231 89.6667 273.631 86.2C276.165 82.6 277.431 79.4 277.431 76.6C277.431 75 277.098 73.6667 276.431 72.6C275.765 71.5333 274.698 71 273.231 71C269.365 71 265.898 72.4667 262.831 75.4C259.765 78.2 257.098 81.4667 254.831 85.2C252.565 88.9333 250.765 92.2667 249.431 95.2ZM288.836 125.8C288.303 125.8 288.303 125.267 288.836 124.2C289.503 123 290.103 121.667 290.636 120.2C291.303 118.733 291.969 117.133 292.636 115.4C293.969 112.2 295.436 108.6 297.036 104.6C298.636 100.6 300.169 96.7333 301.636 93C303.103 89.1333 304.369 85.8667 305.436 83.2C306.636 80.4 307.436 78.6 307.836 77.8C305.969 79.8 303.703 82.3333 301.036 85.4C298.503 88.3333 296.103 91.2 293.836 94C291.569 96.8 289.836 99 288.636 100.6C288.236 101.133 287.903 101.4 287.636 101.4C287.369 101.4 287.236 101.067 287.236 100.4C287.236 99.3333 287.569 98.3333 288.236 97.4C290.769 94.2 293.569 90.6 296.636 86.6C299.836 82.6 302.703 78.9333 305.236 75.6C307.769 72.1333 309.369 69.8667 310.036 68.8C311.503 68.5333 313.636 68.1333 316.436 67.6C319.369 67.0667 321.369 66.3333 322.436 65.4C322.836 65 323.236 64.8 323.636 64.8C323.903 64.8 324.036 65.0667 324.036 65.6C324.169 66 324.036 66.4667 323.636 67C322.836 67.8 321.636 69.5333 320.036 72.2C318.569 74.8667 316.903 77.9333 315.036 81.4C313.169 84.8667 311.369 88.2 309.636 91.4C310.969 89.4 312.703 87.0667 314.836 84.4C317.103 81.6 319.569 78.9333 322.236 76.4C324.903 73.7333 327.569 71.5333 330.236 69.8C333.036 68.0667 335.636 67.2 338.036 67.2C339.769 67.2 341.236 67.6 342.436 68.4C343.636 69.0667 344.569 70.3333 345.236 72.2C345.636 73.1333 345.836 74.2 345.836 75.4C345.836 77.6667 345.236 79.8667 344.036 82C342.969 84 342.169 85.5333 341.636 86.6C341.503 87 341.036 87.4 340.236 87.8C339.436 88.0667 339.103 87.9333 339.236 87.4C339.369 86.7333 339.436 86.0667 339.436 85.4C339.569 84.7333 339.636 84 339.636 83.2C339.636 80.9333 339.169 78.8667 338.236 77C337.436 75.1333 335.903 74.2 333.636 74.2C331.503 74.2 328.903 75.5333 325.836 78.2C322.769 80.8667 319.703 83.9333 316.636 87.4C312.769 91.9333 309.703 96.2667 307.436 100.4C305.169 104.4 303.303 108.333 301.836 112.2C301.036 114.333 300.236 116.467 299.436 118.6C298.636 120.6 298.036 122.2 297.636 123.4C295.903 123.533 294.169 123.933 292.436 124.6C290.703 125.4 289.503 125.8 288.836 125.8ZM383.728 46.6C381.861 46.6 380.528 46 379.728 44.8C379.195 44.1333 378.928 43.2667 378.928 42.2C378.928 40.0667 379.928 38.3333 381.928 37C383.395 36.2 384.728 35.8 385.928 35.8C387.928 35.8 389.328 36.4 390.128 37.6C390.661 38.2667 390.928 39.1333 390.928 40.2C390.928 42.3333 389.861 44.0667 387.728 45.4C386.528 46.2 385.195 46.6 383.728 46.6ZM348.928 123.6C347.595 123.6 346.461 123.333 345.528 122.8C344.728 122.267 344.328 121.267 344.328 119.8C344.328 117.933 344.795 115.733 345.728 113.2C346.795 110.667 347.928 108.133 349.128 105.6C350.461 103.067 351.461 101 352.128 99.4C353.061 97.5333 354.195 95.1333 355.528 92.2C356.995 89.1333 358.328 86.2667 359.528 83.6C360.861 80.8 361.795 78.8667 362.328 77.8C360.461 79.8 358.195 82.3333 355.528 85.4C352.995 88.3333 350.595 91.2 348.328 94C346.061 96.8 344.328 99 343.128 100.6C342.728 101.133 342.395 101.4 342.128 101.4C341.861 101.4 341.728 101.067 341.728 100.4C341.728 99.3333 342.061 98.3333 342.728 97.4C345.261 94.2 348.061 90.6 351.128 86.6C354.328 82.6 357.195 78.9333 359.728 75.6C362.261 72.1333 363.861 69.8667 364.528 68.8C365.995 68.5333 368.128 68.1333 370.928 67.6C373.861 67.0667 375.861 66.3333 376.928 65.4C377.328 65 377.728 64.8 378.128 64.8C378.395 64.8 378.528 65.0667 378.528 65.6C378.661 66 378.528 66.4667 378.128 67C377.328 67.9333 375.928 70.2 373.928 73.8C371.928 77.4 369.795 81.4 367.528 85.8C365.395 90.0667 363.395 93.9333 361.528 97.4C359.661 101 358.061 104.467 356.728 107.8C355.395 111.133 354.728 113.533 354.728 115C354.728 116.867 355.661 117.8 357.528 117.8C359.261 117.8 361.461 116.733 364.128 114.6C366.928 112.467 369.728 109.933 372.528 107C375.328 103.933 377.795 101.133 379.928 98.6C380.595 97.8 381.395 96.8667 382.328 95.8C383.395 94.6 384.061 93.8667 384.328 93.6C384.595 93.8667 384.728 94.3333 384.728 95C384.595 95.9333 384.261 96.8667 383.728 97.8C383.195 98.6 382.661 99.3333 382.128 100C379.328 103.467 376.261 107.067 372.928 110.8C369.595 114.4 365.928 117.467 361.928 120C357.928 122.4 353.595 123.6 348.928 123.6ZM407.805 123.6C406.471 123.6 405.338 123.333 404.405 122.8C403.471 122.267 403.005 121.267 403.005 119.8C403.005 117.933 403.471 115.8 404.405 113.4C405.338 111 406.405 108.667 407.605 106.4C408.805 104 409.871 102.067 410.805 100.6C406.138 105.533 401.271 110.2 396.205 114.6C393.671 116.733 390.871 118.733 387.805 120.6C384.738 122.467 381.471 123.4 378.005 123.4C376.671 123.4 375.738 123 375.205 122.2C374.671 121.267 374.405 120.2 374.405 119C374.405 118.333 374.471 117.867 374.605 117.6C375.271 112.4 376.938 107 379.605 101.4C382.271 95.8 385.538 90.5333 389.405 85.6C393.271 80.6667 397.205 76.6667 401.205 73.6C405.738 70.1333 410.738 68.4 416.205 68.4H439.205C439.871 68.4 440.205 68.6667 440.205 69.2C440.205 70.2667 439.605 70.8 438.405 70.8C437.071 70.8 435.738 71.6667 434.405 73.4C433.071 75 432.071 76.3333 431.405 77.4C430.471 78.8667 429.005 81.3333 427.005 84.8C425.005 88.2667 422.938 92.0667 420.805 96.2C418.805 100.2 417.071 103.933 415.605 107.4C414.138 110.867 413.405 113.4 413.405 115C413.405 116.867 414.338 117.8 416.205 117.8C418.205 117.8 420.471 116.867 423.005 115C425.538 113.133 428.071 110.867 430.605 108.2C433.271 105.4 435.671 102.667 437.805 100C440.071 97.2 441.871 95 443.205 93.4C444.005 94.2 443.938 95.3333 443.005 96.8C442.205 98.1333 441.471 99.2 440.805 100C438.138 103.467 435.071 107.067 431.605 110.8C428.138 114.4 424.338 117.467 420.205 120C416.205 122.4 412.071 123.6 407.805 123.6ZM386.205 116.6C387.805 116.6 390.005 115.467 392.805 113.2C395.738 110.8 398.871 107.867 402.205 104.4C405.538 100.8 408.671 97.0667 411.605 93.2C414.538 89.2 416.938 85.6 418.805 82.4C420.805 79.0667 421.805 76.5333 421.805 74.8C421.805 73.3333 421.338 72.3333 420.405 71.8C419.605 71.2667 418.538 71 417.205 71C415.071 71 412.738 71.8 410.205 73.4C407.805 74.8667 405.871 76.3333 404.405 77.8C402.805 79.2667 400.871 81.6 398.605 84.8C396.471 87.8667 394.338 91.2667 392.205 95C390.071 98.7333 388.271 102.333 386.805 105.8C385.338 109.267 384.605 112.067 384.605 114.2C384.605 115.8 385.138 116.6 386.205 116.6Z" fill="#362EBE"/>
</svg>
